<?xml version="1.0" encoding="UTF-8"?>
<svg id="Calque_1" xmlns="http://www.w3.org/2000/svg" version="1.1" viewBox="0 0 24 24">
  <!-- Generator: Adobe Illustrator 29.1.0, SVG Export Plug-In . SVG Version: 2.1.0 Build 142)  -->
  <defs>
    <style>
      .st0 {
        fill: #fff;
      }
    </style>
  </defs>
  <path class="st0" d="M7,21c-.6,0-1-.2-1.4-.6-.4-.4-.6-.9-.6-1.4V6h-1v-2h5v-1h6v1h5v2h-1v13c0,.6-.2,1-.6,1.4-.4.4-.9.6-1.4.6H7ZM17,6H7v13h10V6ZM9,17h2V8h-2v9ZM13,17h2V8h-2v9ZM7,6v13V6Z"/>
</svg>