<?xml version="1.0" encoding="UTF-8"?>
<svg id="Calque_1" xmlns="http://www.w3.org/2000/svg" version="1.1" viewBox="0 0 24 24">
  <!-- Generator: Adobe Illustrator 29.1.0, SVG Export Plug-In . SVG Version: 2.1.0 Build 142)  -->
  <defs>
    <style>
      .st0 {
        fill: #fff;
      }
    </style>
  </defs>
  <path class="st0" d="M2,19v-2h20v2H2ZM3.2,12.9l-1.3-.8.9-1.5h-1.7v-1.5h1.7l-.9-1.5,1.3-.8.9,1.5.9-1.5,1.3.8-.9,1.5h1.7v1.5h-1.7l.9,1.5-1.3.8-.9-1.5-.9,1.5ZM11.2,12.9l-1.3-.8.9-1.5h-1.7v-1.5h1.7l-.9-1.5,1.3-.8.9,1.5.9-1.5,1.3.8-.9,1.5h1.7v1.5h-1.7l.9,1.5-1.3.8-.9-1.5-.9,1.5ZM19.2,12.9l-1.3-.8.9-1.5h-1.7v-1.5h1.7l-.9-1.5,1.3-.8.9,1.5.9-1.5,1.3.8-.9,1.5h1.7v1.5h-1.7l.9,1.5-1.3.8-.9-1.5-.9,1.5Z"/>
</svg>